<?xml version="1.0" encoding="UTF-8"?> <svg xmlns="http://www.w3.org/2000/svg" viewBox="0 0 2338.08 375.95"><defs><style>.cls-1{fill:#231f20;}</style></defs><g id="Layer_2" data-name="Layer 2"><g id="Layer_1-2" data-name="Layer 1"><path class="cls-1" d="M0,81.55H288v69.32H112.34v43.42H274.09v69.32H112.34V366H0Z"></path><path class="cls-1" d="M317.09,81.55H553.73c32.27,0,51.79,2.79,67.33,10.35,21.11,10.37,38.64,37.85,38.64,68.93,0,26.69-11.15,55.37-43.82,64.93v.8c16.73,4.78,30.27,19.12,32.27,43.82l4.77,62.15a63.45,63.45,0,0,0,14,33.46H544.17c-4-8.36-4-20.71-6-53.78-1.19-21.11-8.37-33.86-29.08-33.86H429.43V366H317.09ZM429.43,206.64h79.68c21.91,0,31.07-8.76,31.07-26.69,0-21.51-13.94-26.69-32.67-26.69H429.43Z"></path><path class="cls-1" d="M780.78,81.55H918.62L1039.73,366H920.21l-12-32.66H791.14L779.19,366H659.67ZM850.1,167.6h-.8L815.84,264h67.72Z"></path><path class="cls-1" d="M1256.42,203.85h159.75V366H1368l-12.75-25.89C1326.14,366,1289.49,376,1225,376c-78.88,0-186-19.52-186-151,0-124.7,99.6-153.38,185.65-153.38,125.09,0,184.45,34.26,193.21,107.56H1291.08c-3.19-14.74-11.55-23.9-21.91-29.08-10.76-5.18-23.51-6.77-38.25-6.77-45.81,0-74.89,22.71-74.89,80.47,0,52.59,27.89,80.48,83.66,80.48,36.65,0,55-14.35,62.94-35.86h-46.21Z"></path><path class="cls-1" d="M1468.73,81.55h112.34V366H1468.73Z"></path><path class="cls-1" d="M1637.23,81.55h112.35v208h174.09V366H1637.23Z"></path><path class="cls-1" d="M1954.32,81.55h302.37v69.32h-190v38.24h176.48v69.32H2066.67v38.25h190V366H1954.32Z"></path><path class="cls-1" d="M2338.08,40.38A40.38,40.38,0,1,1,2297.7,0,40.38,40.38,0,0,1,2338.08,40.38ZM2297.7,9.87a30.51,30.51,0,1,0,30.51,30.51A30.51,30.51,0,0,0,2297.7,9.87Z"></path><path class="cls-1" d="M2280.59,25.63h23.64c7.23,0,9.88,3.3,9.88,8.22,0,3.92-2.07,6.07-4.71,6.73v.09c1.85.62,3.3,2.11,3.55,5.29.45,5.82.62,7.68,1.86,9.17H2304a12.24,12.24,0,0,1-.58-4.38c0-4.63-1.52-5.45-4-5.45h-9v9.83h-9.84Zm9.84,13.05h9.46c2.4,0,3.68-1.24,3.68-3.26s-1.28-3.18-3.68-3.18h-9.46Z"></path></g></g></svg> 